<svg width="298" height="26" viewBox="0 0 298 26" fill="none" xmlns="http://www.w3.org/2000/svg">
<rect x="268.278" width="29.4544" height="26" fill="#8C6121"/>
<rect x="0.922913" width="267.355" height="26" fill="#DB9900"/>
<path d="M290.156 13.3536C290.351 13.1583 290.351 12.8417 290.156 12.6464L286.974 9.46447C286.779 9.2692 286.462 9.2692 286.267 9.46447C286.072 9.65973 286.072 9.97631 286.267 10.1716L289.096 13L286.267 15.8284C286.072 16.0237 286.072 16.3403 286.267 16.5355C286.462 16.7308 286.779 16.7308 286.974 16.5355L290.156 13.3536ZM275.075 13.5H289.803V12.5H275.075V13.5Z" fill="white"/>
<path d="M93.6805 12.3994H89.3671V15.9268H94.3778V17H88.0546V7.04688H94.3094V8.12695H89.3671V11.3262H93.6805V12.3994ZM97.0028 9.60352L97.037 10.4238C97.5793 9.78581 98.3108 9.4668 99.2313 9.4668C100.266 9.4668 100.97 9.86328 101.344 10.6562C101.59 10.3008 101.909 10.0137 102.301 9.79492C102.697 9.57617 103.164 9.4668 103.702 9.4668C105.324 9.4668 106.149 10.3258 106.177 12.0439V17H104.912V12.1191C104.912 11.5905 104.791 11.1963 104.55 10.9365C104.308 10.6722 103.903 10.54 103.333 10.54C102.863 10.54 102.474 10.6813 102.164 10.9639C101.854 11.2419 101.674 11.6178 101.624 12.0918V17H100.352V12.1533C100.352 11.0778 99.826 10.54 98.7733 10.54C97.9439 10.54 97.3765 10.8932 97.0712 11.5996V17H95.8065V9.60352H97.0028ZM112.657 17C112.584 16.8542 112.525 16.5944 112.479 16.2207C111.891 16.8314 111.19 17.1367 110.374 17.1367C109.645 17.1367 109.045 16.9316 108.576 16.5215C108.111 16.1068 107.879 15.5827 107.879 14.9492C107.879 14.179 108.17 13.582 108.754 13.1582C109.342 12.7298 110.167 12.5156 111.228 12.5156H112.459V11.9346C112.459 11.4925 112.327 11.1416 112.062 10.8818C111.798 10.6175 111.408 10.4854 110.893 10.4854C110.442 10.4854 110.064 10.5993 109.759 10.8271C109.453 11.055 109.301 11.3307 109.301 11.6543H108.029C108.029 11.2852 108.159 10.9297 108.419 10.5879C108.683 10.2415 109.039 9.9681 109.485 9.76758C109.936 9.56706 110.431 9.4668 110.969 9.4668C111.821 9.4668 112.488 9.68099 112.972 10.1094C113.455 10.5332 113.705 11.1188 113.724 11.8662V15.2705C113.724 15.9495 113.81 16.4896 113.983 16.8906V17H112.657ZM110.558 16.0361C110.955 16.0361 111.331 15.9336 111.686 15.7285C112.042 15.5234 112.299 15.2568 112.459 14.9287V13.4111H111.468C109.918 13.4111 109.143 13.8646 109.143 14.7715C109.143 15.168 109.276 15.4779 109.54 15.7012C109.804 15.9245 110.144 16.0361 110.558 16.0361ZM117.08 17H115.815V9.60352H117.08V17ZM115.713 7.6416C115.713 7.43652 115.774 7.26335 115.897 7.12207C116.025 6.98079 116.212 6.91016 116.458 6.91016C116.704 6.91016 116.891 6.98079 117.018 7.12207C117.146 7.26335 117.21 7.43652 117.21 7.6416C117.21 7.84668 117.146 8.01758 117.018 8.1543C116.891 8.29102 116.704 8.35938 116.458 8.35938C116.212 8.35938 116.025 8.29102 115.897 8.1543C115.774 8.01758 115.713 7.84668 115.713 7.6416ZM120.484 17H119.22V6.5H120.484V17ZM128.954 16.1045C129.405 16.1045 129.799 15.9678 130.137 15.6943C130.474 15.4209 130.661 15.0791 130.697 14.6689H131.893C131.871 15.0928 131.725 15.4961 131.456 15.8789C131.187 16.2617 130.827 16.5671 130.376 16.7949C129.929 17.0228 129.455 17.1367 128.954 17.1367C127.947 17.1367 127.145 16.8018 126.548 16.1318C125.955 15.4574 125.659 14.5368 125.659 13.3701V13.1582C125.659 12.4382 125.791 11.7979 126.056 11.2373C126.32 10.6768 126.698 10.2415 127.19 9.93164C127.687 9.62174 128.273 9.4668 128.947 9.4668C129.777 9.4668 130.465 9.71517 131.012 10.2119C131.563 10.7087 131.857 11.3535 131.893 12.1465H130.697C130.661 11.668 130.478 11.276 130.15 10.9707C129.827 10.6608 129.426 10.5059 128.947 10.5059C128.305 10.5059 127.806 10.7383 127.45 11.2031C127.099 11.6634 126.924 12.3311 126.924 13.2061V13.4453C126.924 14.2975 127.099 14.9538 127.45 15.4141C127.801 15.8743 128.302 16.1045 128.954 16.1045ZM137.882 16.2686C137.39 16.8473 136.667 17.1367 135.715 17.1367C134.926 17.1367 134.325 16.9089 133.91 16.4531C133.5 15.9928 133.293 15.3138 133.288 14.416V9.60352H134.553V14.3818C134.553 15.5029 135.008 16.0635 135.92 16.0635C136.886 16.0635 137.529 15.7035 137.848 14.9834V9.60352H139.112V17H137.909L137.882 16.2686ZM135.81 8.40723L135.804 7.36133C136.145 7.33854 136.396 7.29297 136.556 7.22461C136.715 7.15625 136.795 7.0332 136.795 6.85547C136.795 6.67773 136.69 6.54557 136.48 6.45898C136.275 6.36784 136.002 6.32227 135.66 6.32227L135.708 5.59766C136.387 5.59766 136.902 5.71615 137.253 5.95312C137.604 6.18555 137.779 6.49544 137.779 6.88281C137.779 7.16081 137.69 7.39095 137.513 7.57324C137.335 7.75553 137.071 7.87174 136.72 7.92188L136.713 8.40723H135.81ZM145.606 17C145.533 16.8542 145.474 16.5944 145.429 16.2207C144.841 16.8314 144.139 17.1367 143.323 17.1367C142.594 17.1367 141.995 16.9316 141.525 16.5215C141.06 16.1068 140.828 15.5827 140.828 14.9492C140.828 14.179 141.12 13.582 141.703 13.1582C142.291 12.7298 143.116 12.5156 144.178 12.5156H145.408V11.9346C145.408 11.4925 145.276 11.1416 145.012 10.8818C144.747 10.6175 144.358 10.4854 143.843 10.4854C143.391 10.4854 143.013 10.5993 142.708 10.8271C142.403 11.055 142.25 11.3307 142.25 11.6543H140.978C140.978 11.2852 141.108 10.9297 141.368 10.5879C141.632 10.2415 141.988 9.9681 142.434 9.76758C142.886 9.56706 143.38 9.4668 143.918 9.4668C144.77 9.4668 145.438 9.68099 145.921 10.1094C146.404 10.5332 146.655 11.1188 146.673 11.8662V15.2705C146.673 15.9495 146.759 16.4896 146.932 16.8906V17H145.606ZM143.508 16.0361C143.904 16.0361 144.28 15.9336 144.636 15.7285C144.991 15.5234 145.249 15.2568 145.408 14.9287V13.4111H144.417C142.867 13.4111 142.093 13.8646 142.093 14.7715C142.093 15.168 142.225 15.4779 142.489 15.7012C142.753 15.9245 143.093 16.0361 143.508 16.0361ZM158.39 13.3838C158.39 14.514 158.13 15.4232 157.61 16.1113C157.091 16.7949 156.393 17.1367 155.518 17.1367C154.584 17.1367 153.862 16.8063 153.351 16.1455L153.29 17H152.128V6.5H153.392V10.417C153.903 9.78353 154.607 9.4668 155.505 9.4668C156.403 9.4668 157.107 9.80632 157.617 10.4854C158.132 11.1644 158.39 12.0941 158.39 13.2744V13.3838ZM157.125 13.2402C157.125 12.3789 156.959 11.7135 156.626 11.2441C156.293 10.7747 155.815 10.54 155.19 10.54C154.356 10.54 153.757 10.9274 153.392 11.7021V14.9014C153.78 15.6761 154.384 16.0635 155.204 16.0635C155.81 16.0635 156.282 15.8288 156.619 15.3594C156.956 14.89 157.125 14.1836 157.125 13.2402ZM164.556 17C164.483 16.8542 164.423 16.5944 164.378 16.2207C163.79 16.8314 163.088 17.1367 162.272 17.1367C161.543 17.1367 160.944 16.9316 160.474 16.5215C160.01 16.1068 159.777 15.5827 159.777 14.9492C159.777 14.179 160.069 13.582 160.652 13.1582C161.24 12.7298 162.065 12.5156 163.127 12.5156H164.357V11.9346C164.357 11.4925 164.225 11.1416 163.961 10.8818C163.696 10.6175 163.307 10.4854 162.792 10.4854C162.341 10.4854 161.962 10.5993 161.657 10.8271C161.352 11.055 161.199 11.3307 161.199 11.6543H159.928C159.928 11.2852 160.057 10.9297 160.317 10.5879C160.582 10.2415 160.937 9.9681 161.384 9.76758C161.835 9.56706 162.329 9.4668 162.867 9.4668C163.719 9.4668 164.387 9.68099 164.87 10.1094C165.353 10.5332 165.604 11.1188 165.622 11.8662V15.2705C165.622 15.9495 165.709 16.4896 165.882 16.8906V17H164.556ZM162.457 16.0361C162.853 16.0361 163.229 15.9336 163.585 15.7285C163.94 15.5234 164.198 15.2568 164.357 14.9287V13.4111H163.366C161.817 13.4111 161.042 13.8646 161.042 14.7715C161.042 15.168 161.174 15.4779 161.438 15.7012C161.703 15.9245 162.042 16.0361 162.457 16.0361ZM161.671 18.6748C161.671 18.4697 161.732 18.2965 161.855 18.1553C161.983 18.014 162.17 17.9434 162.416 17.9434C162.662 17.9434 162.849 18.014 162.976 18.1553C163.104 18.2965 163.168 18.4697 163.168 18.6748C163.168 18.8799 163.104 19.0508 162.976 19.1875C162.849 19.3242 162.662 19.3926 162.416 19.3926C162.17 19.3926 161.983 19.3242 161.855 19.1875C161.732 19.0508 161.671 18.8799 161.671 18.6748ZM168.801 9.60352L168.842 10.5332C169.407 9.82227 170.145 9.4668 171.057 9.4668C172.62 9.4668 173.408 10.3486 173.422 12.1123V17H172.157V12.1055C172.153 11.5723 172.03 11.1781 171.788 10.9229C171.551 10.6676 171.18 10.54 170.674 10.54C170.264 10.54 169.904 10.6494 169.594 10.8682C169.284 11.0869 169.042 11.374 168.869 11.7295V17H167.604V9.60352H168.801Z" fill="black"/>
</svg>
